<svg id="Layer_1" data-name="Layer 1" xmlns="http://www.w3.org/2000/svg" viewBox="0 0 191.73 226.33"><defs><style>.cls-1{fill:#141414;}</style></defs><g id="Group_1" data-name="Group 1"><path id="Path_1" data-name="Path 1" class="cls-1" d="M43.8,88.57A57,57,0,0,0,47,107.7a49.81,49.81,0,0,0,9.39,16.23,47,47,0,0,0,14.84,11.36,44.08,44.08,0,0,0,19.82,4.29,41.62,41.62,0,0,0,20.29-4.75,45.05,45.05,0,0,0,14.37-12.17,56.31,56.31,0,0,0,11.48-33.39,57.68,57.68,0,0,0-11.48-33.73,44.13,44.13,0,0,0-14.49-12.29,42.88,42.88,0,0,0-20.64-4.74,43.94,43.94,0,0,0-34.89,16,50.38,50.38,0,0,0-8.92,16.12,55.7,55.7,0,0,0-3,18M6.73,54.5a94.16,94.16,0,0,1,10.2-17.85A87.38,87.38,0,0,1,34,18.91,88.29,88.29,0,0,1,90.42,0a90.88,90.88,0,0,1,65.15,26.54,89.18,89.18,0,0,1,0,125,90.16,90.16,0,0,1-28.75,19.35,91.6,91.6,0,0,1-36.63,7.19,90.12,90.12,0,0,1-65.38-27A88.11,88.11,0,0,1,6.49,123.24,83,83,0,0,1,0,91.14,119.73,119.73,0,0,1,1.4,73.3,79.62,79.62,0,0,1,6.73,54.52"/><path id="Path_2" data-name="Path 2" class="cls-1" d="M153.3,187.84h-77v38.49H191.73V187.84Z"/></g></svg>